<svg width="187" height="187" viewBox="0 0 187 187" fill="none" xmlns="http://www.w3.org/2000/svg">
<path d="M187 76.2638V110.736C187 120.236 179.283 127.953 169.745 127.953H127.934V169.764C127.934 171.546 127.669 173.272 127.176 174.883C126.645 176.514 125.924 178.05 125.014 179.415C124.408 180.325 123.706 181.179 122.91 181.956C119.781 185.047 115.477 186.981 110.717 186.981H76.2638C71.5045 186.981 67.2191 185.047 64.0904 181.918C62.9148 180.743 61.9288 179.434 61.1135 177.974C60.848 177.481 60.6205 176.988 60.374 176.457C59.9378 175.433 59.6155 174.353 59.388 173.234C59.1604 172.115 59.0277 170.958 59.0277 169.745V127.953C59.0277 127.953 59.0277 127.915 59.0656 127.915H17.2172C11.2443 127.915 6.01085 124.901 2.9201 120.312C2.00994 118.947 1.28939 117.411 0.758467 115.818C0.265463 114.206 0 112.481 0 110.698V76.2259C0 74.4435 0.265463 72.718 0.758467 71.1063C1.28939 69.4945 2.00994 67.9776 2.9201 66.6124C3.52687 65.7022 4.22845 64.8489 5.02484 64.0715C8.15352 60.9428 12.4578 59.0087 17.2172 59.0087H59.0277V66.4038C59.0277 67.3708 59.5586 68.2241 60.374 68.6223C60.6963 68.7929 61.0755 68.8878 61.4927 68.8878H66.4417C67.8069 68.8878 68.9067 67.769 68.9067 66.4038V59.0087C68.9067 58.857 68.9446 58.7243 68.9446 58.5726H68.9067L68.8119 58.4778C68.7171 58.364 68.6033 58.2692 68.5275 58.1554C68.4137 58.0606 68.3189 57.9469 68.2431 57.8331C68.1293 57.7383 68.0345 57.6245 67.9586 57.5107C67.75 57.3022 67.5415 57.0746 67.3708 56.8661C67.276 56.7523 67.1622 56.6385 67.0864 56.5058C66.9157 56.2972 66.7072 56.0697 66.5365 55.8421C66.4417 55.7284 66.3658 55.6146 66.271 55.4818C66.1004 55.2733 65.9108 55.0457 65.7401 54.8182C65.6453 54.7044 65.5695 54.5906 65.4746 54.439C65.3609 54.2683 65.2471 54.0787 65.1144 53.908C64.7351 53.3771 64.3749 52.8462 64.0525 52.2963C64.0146 52.2963 64.0146 52.2584 64.0146 52.2394C63.8629 52.0119 63.7302 51.7654 63.5785 51.5378V51.4999C63.4837 51.3482 63.4268 51.2344 63.3509 51.0827C63.2941 50.969 63.1992 50.8552 63.1424 50.7035C62.9338 50.3243 62.7252 49.945 62.5546 49.5658C62.5166 49.5658 62.5166 49.5279 62.5166 49.5279C62.4597 49.3762 62.4029 49.2624 62.346 49.1107C62.2512 48.9401 62.1753 48.7884 62.1184 48.6177C62.0236 48.4471 61.9478 48.2575 61.8909 48.0868C61.834 47.973 61.7771 47.8593 61.7392 47.7265C61.7013 47.7265 61.7013 47.6886 61.7013 47.6696C61.6634 47.6696 61.6634 47.6317 61.6634 47.6128C61.5685 47.4042 61.4927 47.1956 61.3979 47.006V46.9681C61.3979 46.9681 61.3031 46.7595 61.2841 46.6836C61.1324 46.3044 61.0187 45.9441 60.9049 45.6028C60.848 45.489 60.8101 45.3374 60.7532 45.2236C59.6345 41.8294 59.0277 38.1698 59.0277 34.3775V33.5053C59.0277 33.2398 59.0656 33.0123 59.0656 32.7468C59.0656 32.6899 59.0656 32.5951 59.1035 32.5382C59.1983 30.7558 59.388 29.0493 59.7482 27.3617C59.8051 27.0962 59.862 26.8687 59.9189 26.6032C59.9568 26.4515 59.9758 26.2809 60.0326 26.1102C60.0895 25.8448 60.1843 25.5793 60.2412 25.2949C60.355 24.8777 60.4688 24.4795 60.6205 24.1003C60.7153 23.8159 60.7911 23.5504 60.8859 23.2849C61.1135 22.6213 61.36 21.9766 61.6254 21.294C61.8909 20.6493 62.1753 20.0425 62.4787 19.3978C62.5925 19.1702 62.7062 18.9237 62.839 18.7341C62.839 18.6962 62.839 18.6772 62.8769 18.6393C62.9338 18.5256 62.9907 18.4118 63.0476 18.2791C63.1044 18.1653 63.1992 18.0515 63.2561 17.9188C63.2941 17.8619 63.313 17.805 63.3509 17.7671C63.3889 17.7102 63.4078 17.6533 63.4457 17.5964C63.5026 17.4827 63.5595 17.3689 63.6543 17.2741C63.6543 17.2172 63.6922 17.1603 63.7112 17.1224C63.8629 16.8948 63.9767 16.6863 64.1284 16.4777C64.3369 16.1174 64.5455 15.7761 64.7731 15.4158C64.8679 15.3021 64.9248 15.1883 65.0006 15.0556C65.1523 14.828 65.323 14.5815 65.4746 14.3919C65.5695 14.2781 65.6453 14.1644 65.7401 14.0316C65.9677 13.7093 66.2331 13.368 66.4986 13.0456C66.5555 12.9508 66.6503 12.837 66.7261 12.7233C66.8968 12.5147 67.0485 12.344 67.2191 12.1355C68.7361 10.3531 70.4426 8.68444 72.3008 7.24336C72.4715 7.0727 72.6801 6.92101 72.8887 6.76932C73.3248 6.40904 73.8178 6.10566 74.2918 5.78331C74.4056 5.6885 74.5194 5.61265 74.6521 5.55577C75.0124 5.32823 75.3537 5.08173 75.714 4.89211C75.9415 4.74042 76.1501 4.62665 76.3776 4.47495C76.4914 4.41807 76.6431 4.36118 76.7568 4.26637C76.8516 4.20949 76.9654 4.15261 77.0792 4.09572C77.2309 4.00091 77.3636 3.94403 77.5153 3.86818C77.8756 3.69752 78.2548 3.48895 78.5961 3.31829C78.7478 3.26141 78.8616 3.20452 79.0133 3.14764C79.2408 3.03387 79.5063 2.9201 79.7528 2.78736C80.5492 2.46502 81.3266 2.14267 82.123 1.85824C82.3316 1.80136 82.5402 1.74447 82.7677 1.64966C83.09 1.55486 83.3745 1.44109 83.7347 1.36524C84.0002 1.27043 84.2657 1.19458 84.5311 1.1377C86.1998 0.701581 87.8684 0.379232 89.6129 0.170654C89.7077 0.132731 89.7835 0.132731 89.8783 0.132731C89.9731 0.0948074 90.049 0.0948074 90.1627 0.0948074C90.3713 0.0568841 90.5989 0.0379224 90.8074 0.0379224C91.1677 -9.46224e-07 91.4711 -0.0189626 91.8314 -0.0189626C92.0968 -0.056886 92.3813 -0.056886 92.6846 -0.0758476H94.4481C94.7325 -0.0379243 95.0359 -0.0379243 95.3014 -0.0189626C95.6616 -0.0189626 96.0029 0.0189607 96.3253 0.0379224C96.5528 0.0379224 96.7614 0.0758457 96.97 0.0948074C97.0837 0.0948074 97.1786 0.0948074 97.2544 0.132731C97.3492 0.132731 97.4251 0.132731 97.5199 0.170654C99.2833 0.379232 100.933 0.701581 102.602 1.1377C102.867 1.19458 103.133 1.28939 103.417 1.36524C103.739 1.46005 104.024 1.57382 104.346 1.64966C104.574 1.74447 104.782 1.80136 104.991 1.85824C105.787 2.14267 106.565 2.46502 107.361 2.78736C107.589 2.90113 107.854 3.0149 108.1 3.14764C108.252 3.20452 108.366 3.26141 108.518 3.31829C108.878 3.48895 109.257 3.69752 109.598 3.86818C109.75 3.96299 109.883 4.01987 110.035 4.09572C110.148 4.15261 110.262 4.20949 110.357 4.26637C110.471 4.36118 110.622 4.41807 110.736 4.47495C110.964 4.62665 111.172 4.74042 111.4 4.89211C111.76 5.10069 112.101 5.32823 112.462 5.55577C112.575 5.61265 112.689 5.70746 112.822 5.78331C113.296 6.10566 113.789 6.42801 114.225 6.76932C114.434 6.92101 114.642 7.05374 114.813 7.24336C115.742 7.94494 116.652 8.74133 117.468 9.55668C117.904 9.97384 118.321 10.372 118.719 10.8082C119.117 11.2443 119.515 11.6804 119.895 12.1165C119.989 12.2113 120.065 12.3251 120.16 12.4009C120.255 12.5147 120.312 12.6095 120.388 12.6854C120.426 12.7422 120.482 12.7802 120.501 12.837C120.615 13.0077 120.767 13.1973 120.919 13.368C121.07 13.5766 121.241 13.8041 121.412 14.0127C121.468 14.1264 121.563 14.2402 121.639 14.3729C121.791 14.5815 121.961 14.8091 122.113 15.0366C122.208 15.1504 122.265 15.2641 122.341 15.3969C122.568 15.7571 122.777 16.0985 123.004 16.4587C123.118 16.6673 123.27 16.8759 123.384 17.1034C123.422 17.1413 123.44 17.1982 123.478 17.2551L123.649 17.5775C123.649 17.5775 123.706 17.6912 123.744 17.7481C123.782 17.786 123.801 17.8429 123.839 17.8998C123.896 18.0136 123.99 18.1274 124.047 18.2601C124.104 18.3739 124.161 18.4876 124.218 18.6204C124.256 18.6583 124.256 18.6772 124.256 18.7152C124.37 18.9237 124.483 19.1513 124.616 19.3788C125.223 20.6303 125.754 21.9197 126.228 23.266C126.323 23.5314 126.398 23.7969 126.493 24.0813C126.607 24.4606 126.721 24.8777 126.854 25.2759C126.91 25.5603 127.005 25.8258 127.062 26.0913C127.119 26.2619 127.157 26.4515 127.176 26.5843C127.233 26.8497 127.29 27.0773 127.347 27.3427C127.707 29.0303 127.934 30.7369 128.01 32.5193V32.7278C128.048 32.9933 128.048 33.2208 128.048 33.4863V34.6809C128.048 35.3446 128.01 36.0272 127.991 36.6908C127.896 38.0371 127.726 39.3834 127.498 40.6728C127.347 41.3175 127.214 41.9622 127.062 42.6069C126.948 43.1378 126.835 43.6308 126.683 44.1238C126.588 44.3324 126.531 44.541 126.474 44.7685C126.266 45.4132 126.038 46.02 125.811 46.6647C125.488 47.48 125.147 48.2954 124.749 49.0918C124.521 49.6417 124.256 50.1726 123.952 50.6656C123.896 50.8173 123.801 50.931 123.744 51.0448C123.592 51.3103 123.459 51.5757 123.308 51.8412C123.156 52.0687 123.023 52.3342 122.872 52.5807C122.758 52.7324 122.663 52.8651 122.587 53.0168C122.436 53.2444 122.303 53.4529 122.151 53.6805C122.151 53.6805 122.151 53.7184 122.113 53.7374H122.075C121.924 53.9649 121.791 54.1735 121.639 54.3821C121.468 54.6475 121.279 54.8751 121.108 55.1216C121.051 55.2164 120.956 55.3302 120.881 55.406C120.843 55.4439 120.824 55.5008 120.786 55.5198C120.52 55.8421 120.293 56.1645 120.027 56.4489C119.933 56.5627 119.857 56.6764 119.743 56.8092C119.648 56.9229 119.572 57.0177 119.459 57.1315C119.364 57.2453 119.288 57.3591 119.193 57.4539C119.079 57.5676 119.022 57.6624 118.909 57.7762H118.871C118.776 57.89 118.7 58.0037 118.586 58.0986C118.491 58.2123 118.378 58.3071 118.302 58.4209C118.264 58.4588 118.245 58.4778 118.207 58.5157V58.9518C118.207 67.75 113.58 75.4485 106.659 79.8097C106.223 80.0751 105.787 80.3406 105.351 80.5681C103.891 81.4783 102.507 82.4643 101.236 83.5451C100.44 84.1898 99.7194 84.8535 99.0178 85.593C96.951 87.6598 95.1307 89.9731 93.6327 92.514C93.5758 92.6088 93.519 92.7226 93.4621 92.7984C93.3483 93.007 92.3244 94.9032 92.021 95.6047C91.6986 96.2684 91.4142 96.97 91.1488 97.6716C90.5989 99.1127 90.1627 100.573 89.8025 102.052C89.3664 104.005 89.044 106.034 88.9492 108.082H81.4973C80.8336 108.082 80.1889 108.366 79.7338 108.821C79.5063 109.03 79.3167 109.314 79.2029 109.617C79.0891 109.902 78.9943 110.262 78.9943 110.584V115.533C78.9943 116.026 79.146 116.501 79.4304 116.899C79.8666 117.543 80.625 117.98 81.4783 117.98H88.8733V125.375C88.8733 126.076 89.1578 126.683 89.6129 127.138C90.049 127.574 90.6747 127.878 91.3384 127.878H96.2874C96.9889 127.878 97.5957 127.593 98.0508 127.138C98.2783 126.91 98.468 126.645 98.5817 126.342C98.7334 126.057 98.7903 125.735 98.7903 125.375V117.98H106.185C106.849 117.98 107.494 117.714 107.949 117.24C108.176 117.031 108.366 116.747 108.48 116.444C108.593 116.159 108.688 115.856 108.688 115.514V110.566C108.688 110.035 108.537 109.579 108.252 109.162C107.816 108.518 107.058 108.082 106.204 108.082H98.8851C99.1127 104.744 100.023 101.597 101.483 98.7524C101.748 98.2215 102.014 97.7285 102.336 97.2354C103.151 95.8702 104.119 94.5808 105.199 93.4052C106.659 91.7745 108.366 90.3713 110.205 89.1957C110.262 89.1388 110.3 89.1009 110.357 89.0819H110.395C110.812 88.8165 111.248 88.551 111.646 88.3235H111.684C113.903 86.9582 115.951 85.3465 117.828 83.5262C120.217 81.1559 122.265 78.4634 123.915 75.4864C123.971 75.3726 124.028 75.2589 124.123 75.1072C125.185 73.1162 126.057 71.0115 126.702 68.8119C126.74 68.7171 126.759 68.6412 126.797 68.5464C127.005 67.788 127.214 67.0295 127.384 66.2331C127.878 63.8629 128.181 61.4358 128.181 58.9139H169.972C174.732 58.9139 179.036 60.848 182.165 63.9767C185.293 67.0674 187.228 71.4096 187.228 76.1501L187 76.2638Z" fill="#00D46F"/>
</svg>
