<svg width="10" height="8" viewBox="0 0 10 8" fill="none" xmlns="http://www.w3.org/2000/svg">
<path d="M0 3.59388C0 3.09209 0 2.59029 0 2.0885C0.00417425 2.08424 0.0104356 2.08022 0.012001 2.07525C0.14662 1.62149 0.446383 1.41235 0.963207 1.41235C1.41872 1.41235 1.87424 1.41235 2.32975 1.41235H2.44089C2.44089 1.21811 2.43959 1.03571 2.44089 0.853303C2.44532 0.37919 2.83327 0.00775515 3.35375 0.00467957C4.45027 -0.00218133 5.54679 -0.000761834 6.64331 0.00420641C7.0743 0.00609907 7.4359 0.268943 7.52721 0.642507C7.55904 0.772864 7.55173 0.911739 7.55669 1.04683C7.56112 1.1663 7.55773 1.28625 7.55773 1.41258C7.60652 1.41258 7.64174 1.41258 7.67722 1.41258C8.14891 1.41258 8.62086 1.41046 9.09255 1.41306C9.62633 1.4159 9.99758 1.75681 9.99862 2.24157C9.9994 2.63406 9.99549 3.02655 9.99993 3.41881C10.0033 3.72589 9.89009 3.99087 9.66703 4.21775C9.62216 4.26341 9.60703 4.30812 9.60703 4.36751C9.60885 5.29396 9.60833 6.22066 9.60807 7.14712C9.60807 7.66405 9.23734 8 8.6673 8C6.22354 8 3.78004 8 1.33628 8C0.760495 8 0.390814 7.66453 0.390814 7.14239C0.390814 6.21593 0.390814 5.28923 0.390031 4.36277C0.390031 4.32894 0.392379 4.28352 0.370986 4.26294C0.172709 4.07296 0.0555696 3.84797 0.00026089 3.59364L0 3.59388ZM6.01483 4.79123C6.75941 4.73681 7.47842 4.64052 8.17213 4.42476C8.51181 4.31901 8.83844 4.18818 9.11342 3.9717C9.31248 3.81485 9.42284 3.62558 9.41553 3.37622C9.40484 2.99887 9.41318 2.62081 9.41266 2.24323C9.4124 2.05112 9.29865 1.94419 9.0902 1.94419C6.36338 1.94371 3.63655 1.94371 0.909725 1.94419C0.70049 1.94419 0.586481 2.05065 0.586221 2.24228C0.585699 2.62294 0.593004 3.00384 0.583351 3.38427C0.577611 3.61565 0.675967 3.79521 0.856242 3.9471C1.0373 4.09969 1.2494 4.20781 1.47325 4.29771C1.97624 4.49952 2.50637 4.61521 3.0472 4.69091C3.35453 4.73374 3.66394 4.76284 3.98406 4.79951C3.98406 4.71008 3.98327 4.63697 3.98406 4.56387C3.9864 4.39448 4.10224 4.28352 4.28669 4.28281C4.76177 4.28092 5.23685 4.28092 5.71193 4.28281C5.89638 4.28352 6.01222 4.39424 6.01457 4.56363C6.01561 4.63674 6.01457 4.71008 6.01457 4.7917L6.01483 4.79123ZM9.02211 4.67625C8.99967 4.68287 8.99028 4.68453 8.98219 4.68831C8.51624 4.90621 8.02081 5.04957 7.50764 5.13332C7.05082 5.20785 6.58826 5.25446 6.12857 5.31502C6.0704 5.32259 6.00413 5.30343 5.97595 5.38812C5.85047 5.76524 5.56557 5.97935 5.13537 6.02879C4.61906 6.08817 4.16224 5.83172 4.02632 5.40492C4.00623 5.34223 3.97493 5.32164 3.90892 5.31573C3.65325 5.29302 3.39731 5.27078 3.14268 5.24026C2.46646 5.15911 1.80693 5.01905 1.18366 4.75952C1.11713 4.73184 1.05113 4.70298 0.976512 4.67104V4.76331C0.976512 5.56012 0.976512 6.35693 0.976512 7.15374C0.976512 7.36596 1.08948 7.46911 1.32297 7.46911C3.77352 7.46911 6.22406 7.46911 8.6746 7.46911C8.90888 7.46911 9.02211 7.36643 9.02237 7.15469C9.02237 6.6678 9.02237 6.18091 9.02237 5.69379V4.67625H9.02211ZM6.97177 1.40856C6.97177 1.23089 6.97177 1.06292 6.97177 0.894941C6.97177 0.648658 6.84368 0.533442 6.57052 0.533442C5.81577 0.533442 5.06101 0.533442 4.30626 0.533442C4.00049 0.533442 3.69473 0.532496 3.3887 0.533916C3.20295 0.534625 3.05007 0.628549 3.03729 0.780908C3.01981 0.987918 3.03285 1.19682 3.03285 1.4088H6.97177V1.40856ZM4.56976 4.81701C4.56976 4.93483 4.56767 5.04603 4.57028 5.15746C4.57471 5.34743 4.72681 5.48915 4.93761 5.50287C5.20111 5.5199 5.39234 5.41391 5.42026 5.21566C5.43852 5.08625 5.42365 4.95305 5.42365 4.81725H4.56976V4.81701Z" fill="#1B1C34"/>
</svg>
