<svg width="16" height="16" viewBox="0 0 16 16" fill="none" xmlns="http://www.w3.org/2000/svg">
<g clip-path="url(#clip0_618_109)">
<path d="M14.0281 12.3921C13.9941 11.9626 13.7646 11.6304 13.5039 11.3106C13.0422 10.7439 12.5987 10.1615 12.124 9.60609C11.6778 9.08422 11.004 9.01041 10.4451 9.41136C10.0578 9.68927 9.69188 9.99712 9.32123 10.2979C9.24611 10.3589 9.19764 10.3692 9.11185 10.3155C8.44443 9.8973 7.90415 9.34002 7.39782 8.74632C6.87966 8.1389 6.42817 7.48465 6.07734 6.76472C5.98133 6.56805 5.90888 6.35995 5.82051 6.15933C5.79054 6.09091 5.80602 6.05412 5.86319 6.00932C6.18448 5.75698 6.51039 5.50929 6.81836 5.24133C6.98452 5.09669 7.15144 4.93321 7.26016 4.74491C7.54025 4.25978 7.46887 3.77859 7.13636 3.34529C6.65407 2.71783 6.15188 2.10568 5.66544 1.48154C5.16193 0.83552 4.41345 0.700618 3.77151 1.17544C3.29827 1.52551 2.82859 1.88356 2.38826 2.27314C1.91704 2.6902 1.74791 3.25807 1.72752 3.87477C1.69582 4.84287 1.93426 5.75929 2.26074 6.65815C2.7448 7.99117 3.41023 9.22703 4.27741 10.346C5.58103 12.0281 7.1177 13.4378 9.05616 14.3625C9.59806 14.6206 10.1618 14.8065 10.7644 14.8589C11.3303 14.9077 11.8479 14.7805 12.3005 14.4281C12.6941 14.1213 13.0841 13.81 13.4705 13.4944C13.7186 13.292 13.8908 13.0328 13.9906 12.7265L14.0284 12.3925L14.0281 12.3921ZM2.4013 3.72458C2.43691 3.3219 2.5789 2.9636 2.89209 2.70415C3.30587 2.36146 3.7309 2.03139 4.16381 1.71357C4.4883 1.47535 4.81047 1.51524 5.06518 1.82723C5.58994 2.47015 6.10442 3.12223 6.61373 3.77752C6.81245 4.03294 6.78451 4.32534 6.56508 4.56512C6.51032 4.62499 6.44673 4.67801 6.38304 4.72896C6.03117 5.01225 5.67723 5.29255 5.32596 5.5766C5.09055 5.76674 5.02833 5.98645 5.13254 6.26525C5.20621 6.46248 5.28086 6.66017 5.36749 6.85199C5.75946 7.71731 6.28826 8.49419 6.90425 9.21246C7.47456 9.87705 8.08873 10.4933 8.84868 10.945C9.17954 11.1414 9.37247 11.1267 9.66685 10.882C10.0043 10.6016 10.3427 10.3223 10.688 10.052C11.0938 9.73454 11.3903 9.77084 11.7216 10.1631C11.7271 10.1695 11.7325 10.1763 11.7379 10.1831C12.2032 10.7694 12.6705 11.3543 13.1321 11.9432C13.2052 12.0365 13.273 12.1429 13.3101 12.2541C13.4125 12.5613 13.2662 12.7911 13.0405 12.9768C12.6754 13.2775 12.3101 13.5796 11.9297 13.86C11.764 13.9824 11.5689 14.0831 11.3718 14.1403C10.9263 14.2695 10.4852 14.1721 10.0576 14.034C9.24243 13.7704 8.49806 13.3597 7.80895 12.8575C5.34677 11.0626 3.59372 8.7413 2.67753 5.81C2.46556 5.13226 2.34512 4.43942 2.40024 3.7248L2.4013 3.72458Z" fill="#00D46F"/>
</g>
<defs>
<clipPath id="clip0_618_109">
<rect width="13.1916" height="13.1916" fill="white" transform="matrix(0.112401 -0.993663 -0.993663 -0.112401 13.7109 15.1936)"/>
</clipPath>
</defs>
</svg>
