<svg width="10" height="8" viewBox="0 0 10 8" fill="none" xmlns="http://www.w3.org/2000/svg">
<g clip-path="url(#clip0_618_97)">
<path d="M0 6.84428C0 4.94811 0 3.05224 0 1.15607C0.00677083 1.13207 0.015625 1.10897 0.0200521 1.08438C0.131771 0.459925 0.601823 0.00284123 1.1526 0.00224877C3.71771 -0.000417308 6.28281 -0.000713538 8.84766 0.00313746C9.22135 0.00372992 9.52318 0.19154 9.75703 0.523318C9.88854 0.709943 9.94766 0.930931 10 1.15607V6.84428C9.99323 6.86798 9.98411 6.89138 9.97969 6.91568C9.86771 7.54102 9.39896 7.99751 8.84739 7.9981C6.28255 8.00106 3.71745 8.00136 1.1526 7.99721C0.77526 7.99662 0.471094 7.80526 0.23724 7.46815C0.109115 7.28359 0.0507812 7.06616 0 6.84428ZM0.78125 2.42097C0.78125 2.47933 0.78125 2.51191 0.78125 2.5442C0.78125 3.90301 0.78125 5.26212 0.78125 6.62093C0.78125 6.9296 0.940365 7.11059 1.21172 7.11059C3.7375 7.11059 6.26302 7.11059 8.7888 7.11059C9.05937 7.11059 9.21823 6.92871 9.21849 6.61974C9.21875 5.2165 9.21849 3.81296 9.21849 2.40971C9.21849 2.37891 9.21484 2.3481 9.21198 2.30544C9.18151 2.3321 9.16068 2.34899 9.14141 2.36765C8.02656 3.44237 6.91198 4.5168 5.79766 5.59182C5.30599 6.06609 4.70807 6.07823 4.21354 5.61878C3.475 4.93271 2.73854 4.24397 2.00104 3.55672C1.60104 3.18406 1.20104 2.8114 0.78151 2.42067L0.78125 2.42097ZM9.18672 1.15784C9.09766 0.962036 8.96094 0.888274 8.77839 0.888274C6.25599 0.890051 3.73359 0.889459 1.2112 0.889459C1.19167 0.889459 1.17214 0.888274 1.1526 0.890348C0.997135 0.905752 0.885417 0.992844 0.816146 1.15281C0.783594 1.22835 0.786198 1.27959 0.851562 1.34032C2.13229 2.52909 3.41042 3.72172 4.68958 4.91256C4.91224 5.11993 5.08047 5.11815 5.29792 4.90842C6.45755 3.79104 7.61667 2.67306 8.77604 1.55539C8.91198 1.42416 9.0474 1.29263 9.18672 1.15755V1.15784Z" fill="#00D46F"/>
</g>
<defs>
<clipPath id="clip0_618_97">
<rect width="10" height="8" fill="white"/>
</clipPath>
</defs>
</svg>
