<svg width="34" height="37" viewBox="0 0 34 37" fill="none" xmlns="http://www.w3.org/2000/svg">
<g clip-path="url(#clip0_508_27)">
<path d="M14.6779 37C14.5729 36.954 14.4679 36.908 14.3629 36.8602C13.6451 36.5327 13.2303 35.9752 13.1958 35.1627C13.1735 34.621 13.1803 34.0794 13.1941 33.5378C13.2199 32.5642 13.9498 31.7394 14.9017 31.7181C16.5903 31.6809 18.2807 31.6827 19.9693 31.7163C20.8472 31.734 21.5616 32.4155 21.6528 33.3165C21.7199 33.982 21.7182 34.6653 21.6614 35.3326C21.5943 36.1256 21.114 36.6354 20.3945 36.9115C20.3188 36.9398 20.2447 36.9717 20.1707 37.0018H14.6779V37ZM19.7473 33.7059H15.1341V34.9857H19.7473V33.7059Z" fill="#1B1C34"/>
<path d="M17.4235 30.7906C16.5438 30.7906 15.6625 30.7977 14.7829 30.7906C13.3576 30.7764 12.497 29.9763 12.5951 28.5302C12.6932 27.061 12.089 25.9653 11.2421 24.9015C10.4864 23.9528 9.66707 23.0288 9.07665 21.9756C5.82159 16.1803 9.29354 8.65395 15.709 7.50694C21.0452 6.5511 26.0543 10.1514 26.9063 15.6068C27.3832 18.6602 26.5758 21.3684 24.6238 23.728C24.0317 24.4431 23.4654 25.1812 22.9163 25.9317C22.4222 26.6061 22.1726 27.3726 22.2639 28.231C22.2794 28.3744 22.2742 28.5196 22.2759 28.6647C22.2897 29.9746 21.5908 30.7446 20.3067 30.7817C19.3445 30.8083 18.3822 30.787 17.42 30.787C17.42 30.787 17.42 30.7906 17.42 30.7924L17.4235 30.7906ZM20.3119 28.7904C20.3205 28.6789 20.3394 28.5975 20.3308 28.516C20.169 26.9513 20.682 25.6007 21.6012 24.3935C22.2071 23.597 22.8526 22.8323 23.4619 22.0375C25.4174 19.4957 25.648 16.037 24.0592 13.2332C22.4825 10.4488 19.3875 8.8876 16.2994 9.41509C13.4144 9.90717 11.3523 11.5728 10.3005 14.3784C9.26083 17.1557 9.7015 19.7701 11.4865 22.1225C12.0047 22.8057 12.571 23.4501 13.1012 24.1262C14.0668 25.3582 14.6504 26.7318 14.504 28.3514C14.4713 28.7178 14.6039 28.8258 14.9568 28.8223C16.611 28.8063 18.2652 28.8152 19.9177 28.8134C20.0433 28.8134 20.1707 28.7992 20.3101 28.7904H20.3119Z" fill="#1B1C34"/>
<path d="M8.84255 7.71755C8.80984 8.24503 8.6618 8.55657 8.31581 8.73888C7.94745 8.93359 7.58252 8.90704 7.26407 8.63622C6.968 8.3831 6.69603 8.09811 6.41717 7.82375C5.70453 7.12634 4.98846 6.43424 4.28443 5.72798C3.92639 5.36865 3.86958 4.91551 4.09336 4.51016C4.31025 4.1172 4.74575 3.91718 5.17436 4.04994C5.34649 4.10304 5.51691 4.21102 5.64945 4.33846C6.59791 5.25183 7.54293 6.16873 8.47074 7.1051C8.65836 7.2945 8.75992 7.57417 8.84427 7.71578L8.84255 7.71755Z" fill="#00D46F"/>
<path d="M26.6567 9.12467C26.1094 9.10165 25.8116 8.91403 25.6532 8.537C25.4828 8.13519 25.5413 7.75108 25.846 7.43955C26.3107 6.9634 26.7927 6.50672 27.2661 6.04118C27.7567 5.55972 28.2455 5.07472 28.7413 4.5968C29.1923 4.16313 29.7603 4.15782 30.1511 4.57202C30.5384 4.98091 30.5212 5.58096 30.0822 6.01994C29.1406 6.95809 28.1939 7.89092 27.2299 8.80428C27.0458 8.97952 26.7755 9.06094 26.6567 9.12467Z" fill="#00D46F"/>
<path d="M18.4081 3.04454C18.4081 3.68177 18.4115 4.319 18.4081 4.95623C18.4029 5.60231 18.0001 6.05545 17.4407 6.05545C16.895 6.05545 16.4853 5.62355 16.4784 4.99163C16.4664 3.68177 16.4664 2.37014 16.4784 1.06028C16.4836 0.421279 16.8881 0 17.4407 0C18.0035 0 18.4012 0.44783 18.4063 1.09568C18.4115 1.7453 18.4063 2.39492 18.4063 3.04454H18.4081Z" fill="#00D46F"/>
<path d="M2.84711 14.5111C3.45646 14.5111 4.06582 14.5058 4.67517 14.5111C5.28281 14.5182 5.70798 14.9342 5.70454 15.4989C5.69937 16.067 5.27592 16.4759 4.66485 16.4795C3.45818 16.4848 2.25152 16.483 1.04486 16.4742C0.423452 16.4706 0.0103296 16.0741 0.00172284 15.5006C-0.00688389 14.9165 0.418288 14.5111 1.05519 14.5041C1.65249 14.4988 2.2498 14.5041 2.84711 14.5041C2.84711 14.5041 2.84711 14.5076 2.84711 14.5094V14.5111Z" fill="#00D46F"/>
<path d="M31.1546 16.4847C30.5453 16.4847 29.9359 16.4918 29.3265 16.4847C28.7224 16.4777 28.2955 16.0564 28.2989 15.4917C28.3023 14.9253 28.7275 14.5182 29.3403 14.5146C30.547 14.5076 31.7536 14.5058 32.9603 14.5093C33.5834 14.5111 33.9948 14.9058 34 15.4811C34.0052 16.0688 33.5869 16.467 32.9465 16.4812C32.9121 16.4812 32.876 16.4812 32.8415 16.4812C32.2787 16.4812 31.7175 16.4812 31.1546 16.4812C31.1546 16.4812 31.1546 16.483 31.1546 16.4847Z" fill="#00D46F"/>
</g>
<defs>
<clipPath id="clip0_508_27">
<rect width="34" height="37" fill="white"/>
</clipPath>
</defs>
</svg>
