<svg width="79" height="79" viewBox="0 0 79 79" fill="none" xmlns="http://www.w3.org/2000/svg">
<path d="M78.307 32.2505V46.8136C78.307 50.8269 75.0753 54.0872 71.0813 54.0872H53.573V71.7505C53.573 72.5034 53.4619 73.2324 53.2554 73.9133C53.0331 74.6022 52.7314 75.2511 52.3502 75.8278C52.0961 76.2123 51.8024 76.5728 51.4689 76.9012C50.1587 78.207 48.3563 79.024 46.3633 79.024H31.9358C29.9428 79.024 28.1483 78.207 26.8381 76.8852C26.3458 76.3886 25.9329 75.8358 25.5915 75.219C25.4803 75.0107 25.3851 74.8025 25.2818 74.5782C25.0992 74.1456 24.9642 73.689 24.8689 73.2164C24.7737 72.7438 24.7181 72.2551 24.7181 71.7424V54.0872C24.7181 54.0872 24.7181 54.0712 24.734 54.0712H7.20977C4.70858 54.0712 2.51707 52.7975 1.2228 50.859C0.841669 50.2822 0.539939 49.6333 0.317611 48.9605C0.111164 48.2796 0 47.5506 0 46.7976V32.2344C0 31.4814 0.111164 30.7525 0.317611 30.0716C0.539939 29.3907 0.841669 28.7498 1.2228 28.1731C1.47689 27.7886 1.77068 27.4281 2.10417 27.0997C3.41432 25.7779 5.21676 24.9609 7.20977 24.9609H24.7181V28.085C24.7181 28.4935 24.9404 28.854 25.2818 29.0222C25.4168 29.0943 25.5756 29.1344 25.7503 29.1344H27.8227C28.3944 29.1344 28.855 28.6617 28.855 28.085V24.9609C28.855 24.8968 28.8708 24.8407 28.8708 24.7766H28.855L28.8153 24.7366C28.7756 24.6885 28.7279 24.6484 28.6962 24.6004C28.6485 24.5603 28.6088 24.5123 28.5771 24.4642C28.5294 24.4242 28.4897 24.3761 28.4579 24.328C28.3706 24.2399 28.2833 24.1438 28.2118 24.0557C28.1721 24.0076 28.1245 23.9595 28.0927 23.9035C28.0212 23.8154 27.9339 23.7192 27.8624 23.6231C27.8227 23.575 27.791 23.527 27.7513 23.4709C27.6798 23.3828 27.6004 23.2867 27.5289 23.1905C27.4892 23.1425 27.4575 23.0944 27.4178 23.0303C27.3701 22.9582 27.3225 22.8781 27.2669 22.806C27.1081 22.5817 26.9572 22.3574 26.8222 22.1251C26.8064 22.1251 26.8064 22.1091 26.8064 22.1011C26.7428 22.005 26.6873 21.9008 26.6237 21.8047V21.7887C26.584 21.7246 26.5602 21.6765 26.5285 21.6125C26.5046 21.5644 26.4649 21.5163 26.4411 21.4522C26.3538 21.292 26.2664 21.1318 26.195 20.9716C26.1791 20.9716 26.1791 20.9556 26.1791 20.9556C26.1553 20.8915 26.1314 20.8434 26.1076 20.7794C26.0679 20.7073 26.0362 20.6432 26.0123 20.5711C25.9726 20.499 25.9409 20.4189 25.9171 20.3468C25.8932 20.2987 25.8694 20.2507 25.8535 20.1946C25.8377 20.1946 25.8377 20.1786 25.8377 20.1706C25.8218 20.1706 25.8218 20.1545 25.8218 20.1465C25.7821 20.0584 25.7503 19.9703 25.7106 19.8902V19.8742C25.7106 19.8742 25.6709 19.786 25.663 19.754C25.5994 19.5938 25.5518 19.4416 25.5042 19.2974C25.4803 19.2493 25.4645 19.1853 25.4406 19.1372C24.9722 17.7033 24.7181 16.1573 24.7181 14.5552V14.1867C24.7181 14.0745 24.734 13.9784 24.734 13.8663C24.734 13.8422 24.734 13.8022 24.7498 13.7781C24.7895 13.0251 24.8689 12.3042 25.0198 11.5913C25.0436 11.4791 25.0674 11.383 25.0913 11.2708C25.1072 11.2068 25.1151 11.1347 25.1389 11.0626C25.1627 10.9504 25.2024 10.8383 25.2263 10.7181C25.2739 10.5419 25.3215 10.3737 25.3851 10.2134C25.4248 10.0933 25.4565 9.98114 25.4962 9.86899C25.5915 9.58862 25.6947 9.31626 25.8059 9.02788C25.9171 8.75553 26.0362 8.49919 26.1632 8.22683C26.2108 8.1307 26.2585 8.02657 26.3141 7.94646C26.3141 7.93044 26.3141 7.92243 26.33 7.90641C26.3538 7.85835 26.3776 7.81028 26.4014 7.75421C26.4252 7.70614 26.4649 7.65808 26.4888 7.60201C26.5046 7.57798 26.5126 7.55394 26.5285 7.53792C26.5443 7.51389 26.5523 7.48986 26.5682 7.46583C26.592 7.41776 26.6158 7.3697 26.6555 7.32965C26.6555 7.30562 26.6714 7.28159 26.6793 7.26556C26.7428 7.16944 26.7905 7.08132 26.854 6.99321C26.9414 6.84101 27.0287 6.69682 27.124 6.54462C27.1637 6.49655 27.1875 6.44849 27.2193 6.39242C27.2828 6.29629 27.3542 6.19215 27.4178 6.11205C27.4575 6.06398 27.4892 6.01592 27.5289 5.95985C27.6242 5.82367 27.7354 5.67948 27.8465 5.5433C27.8704 5.50324 27.9101 5.45518 27.9418 5.40712C28.0133 5.319 28.0768 5.24691 28.1483 5.15879C28.7835 4.4058 29.4981 3.70087 30.2763 3.09207C30.3477 3.01998 30.4351 2.95589 30.5224 2.89181C30.705 2.73961 30.9115 2.61144 31.11 2.47526C31.1576 2.43521 31.2053 2.40316 31.2609 2.37913C31.4117 2.28301 31.5547 2.17887 31.7055 2.09876C31.8008 2.03468 31.8881 1.98662 31.9834 1.92253C32.0311 1.8985 32.0946 1.87447 32.1422 1.83441C32.1819 1.81038 32.2296 1.78635 32.2772 1.76232C32.3407 1.72227 32.3963 1.69824 32.4598 1.66619C32.6107 1.5941 32.7695 1.50598 32.9124 1.43389C32.976 1.40986 33.0236 1.38582 33.0871 1.36179C33.1824 1.31373 33.2936 1.26567 33.3968 1.20959C33.7303 1.07341 34.0558 0.937234 34.3893 0.817076C34.4767 0.793044 34.564 0.769012 34.6593 0.72896C34.7943 0.688907 34.9134 0.640844 35.0643 0.608801C35.1754 0.568749 35.2866 0.536707 35.3977 0.512675C36.0965 0.328432 36.7952 0.192253 37.5257 0.104137C37.5654 0.088116 37.5972 0.088116 37.6369 0.088116C37.6766 0.0720949 37.7084 0.0720949 37.756 0.0720949C37.8433 0.0560738 37.9386 0.0480633 38.026 0.0480633C38.1768 0.0320422 38.3039 0.0240316 38.4548 0.0240316C38.5659 0.00801054 38.685 0.00801054 38.8121 0H39.5505C39.6696 0.0160211 39.7967 0.0160211 39.9078 0.0240316C40.0587 0.0240316 40.2016 0.0400527 40.3366 0.0480633C40.4319 0.0480633 40.5192 0.0640844 40.6066 0.0720949C40.6542 0.0720949 40.6939 0.0720949 40.7257 0.088116C40.7654 0.088116 40.7971 0.088116 40.8368 0.104137C41.5753 0.192253 42.2661 0.328432 42.9648 0.512675C43.076 0.536707 43.1872 0.576759 43.3063 0.608801C43.4412 0.648854 43.5603 0.696917 43.6953 0.72896C43.7906 0.769012 43.878 0.793044 43.9653 0.817076C44.2988 0.937234 44.6243 1.07341 44.9578 1.20959C45.0531 1.25766 45.1643 1.30572 45.2675 1.36179C45.331 1.38582 45.3787 1.40986 45.4422 1.43389C45.5931 1.50598 45.7519 1.5941 45.8948 1.66619C45.9583 1.70625 46.0139 1.73028 46.0774 1.76232C46.1251 1.78635 46.1727 1.81038 46.2124 1.83441C46.26 1.87447 46.3236 1.8985 46.3712 1.92253C46.4665 1.98662 46.5538 2.03468 46.6491 2.09876C46.8 2.18688 46.9429 2.28301 47.0938 2.37913C47.1414 2.40316 47.1891 2.44322 47.2446 2.47526C47.4431 2.61144 47.6496 2.74762 47.8322 2.89181C47.9196 2.95589 48.0069 3.01197 48.0784 3.09207C48.4674 3.38846 48.8486 3.7249 49.19 4.06936C49.3726 4.24559 49.5473 4.41381 49.7141 4.59805C49.8808 4.7823 50.0476 4.96654 50.2064 5.15078C50.2461 5.19083 50.2778 5.2389 50.3175 5.27094C50.3572 5.319 50.381 5.35906 50.4128 5.3911C50.4287 5.41513 50.4525 5.43115 50.4604 5.45518C50.5081 5.52728 50.5716 5.60738 50.6351 5.67948C50.6987 5.76759 50.7701 5.86372 50.8416 5.95184C50.8654 5.9999 50.9051 6.04796 50.9369 6.10404C51.0004 6.19215 51.0718 6.28828 51.1354 6.3844C51.1751 6.43247 51.1989 6.48053 51.2307 6.5366C51.3259 6.68881 51.4133 6.833 51.5086 6.9852C51.5562 7.07331 51.6197 7.16143 51.6674 7.25755C51.6833 7.27358 51.6912 7.29761 51.7071 7.32164L51.7785 7.45782C51.7785 7.45782 51.8024 7.50588 51.8182 7.52991C51.8341 7.54593 51.8421 7.56996 51.8579 7.594C51.8818 7.64206 51.9215 7.69012 51.9453 7.7462C51.9691 7.79426 51.9929 7.84232 52.0167 7.8984C52.0326 7.91442 52.0326 7.92243 52.0326 7.93845C52.0803 8.02657 52.1279 8.12269 52.1835 8.21882C52.4376 8.74752 52.6599 9.29223 52.8584 9.86098C52.8981 9.97313 52.9299 10.0853 52.9696 10.2054C53.0172 10.3656 53.0649 10.5419 53.1204 10.7101C53.1443 10.8303 53.184 10.9424 53.2078 11.0546C53.2316 11.1266 53.2475 11.2068 53.2554 11.2628C53.2792 11.375 53.3031 11.4711 53.3269 11.5832C53.4778 12.2962 53.573 13.0171 53.6048 13.7701V13.8582C53.6207 13.9704 53.6207 14.0665 53.6207 14.1787V14.6833C53.6207 14.9637 53.6048 15.2521 53.5969 15.5324C53.5572 16.1012 53.4857 16.6699 53.3904 17.2147C53.3269 17.487 53.2713 17.7594 53.2078 18.0317C53.1601 18.256 53.1125 18.4643 53.049 18.6726C53.0093 18.7607 52.9855 18.8488 52.9616 18.9449C52.8743 19.2173 52.779 19.4736 52.6837 19.746C52.5487 20.0904 52.4058 20.4349 52.2391 20.7713C52.1438 21.0037 52.0326 21.2279 51.9056 21.4362C51.8818 21.5003 51.8421 21.5484 51.8182 21.5964C51.7547 21.7086 51.6991 21.8207 51.6356 21.9329C51.5721 22.029 51.5165 22.1411 51.453 22.2453C51.4053 22.3094 51.3656 22.3654 51.3339 22.4295C51.2704 22.5257 51.2148 22.6138 51.1512 22.7099C51.1512 22.7099 51.1513 22.7259 51.1354 22.7339H51.1195C51.056 22.8301 51.0004 22.9182 50.9369 23.0063C50.8654 23.1184 50.786 23.2146 50.7145 23.3187C50.6907 23.3588 50.651 23.4068 50.6193 23.4389C50.6034 23.4549 50.5954 23.4789 50.5796 23.4869C50.4684 23.6231 50.3731 23.7593 50.2619 23.8794C50.2222 23.9275 50.1905 23.9756 50.1428 24.0316C50.1031 24.0797 50.0714 24.1198 50.0237 24.1678C49.984 24.2159 49.9523 24.2639 49.9126 24.304C49.8649 24.3521 49.8411 24.3921 49.7935 24.4402H49.7776C49.7379 24.4882 49.7061 24.5363 49.6585 24.5764C49.6188 24.6244 49.5711 24.6645 49.5394 24.7125C49.5235 24.7286 49.5156 24.7366 49.4997 24.7526V24.9368C49.4997 28.6537 47.5622 31.906 44.664 33.7484C44.4814 33.8606 44.2988 33.9727 44.1162 34.0689C43.5048 34.4534 42.9251 34.8699 42.3931 35.3265C42.0596 35.5989 41.7579 35.8792 41.4641 36.1916C40.5986 37.0648 39.8364 38.0421 39.2091 39.1155C39.1853 39.1555 39.1614 39.2036 39.1376 39.2356C39.09 39.3238 38.6612 40.1248 38.5342 40.4212C38.3992 40.7016 38.2801 40.998 38.1689 41.2944C37.9386 41.9032 37.756 42.52 37.6051 43.1448C37.4225 43.9699 37.2875 44.827 37.2478 45.6922H34.1273C33.8494 45.6922 33.5794 45.8123 33.3889 46.0046C33.2936 46.0927 33.2142 46.2128 33.1665 46.341C33.1189 46.4612 33.0792 46.6134 33.0792 46.7495V48.8403C33.0792 49.0486 33.1427 49.2488 33.2618 49.4171C33.4444 49.6894 33.7621 49.8737 34.1194 49.8737H37.2161V52.9978C37.2161 53.2942 37.3352 53.5505 37.5257 53.7428C37.7084 53.927 37.9704 54.0552 38.2483 54.0552H40.3207C40.6145 54.0552 40.8686 53.935 41.0592 53.7428C41.1544 53.6466 41.2338 53.5345 41.2815 53.4063C41.345 53.2861 41.3688 53.15 41.3688 52.9978V49.8737H44.4655C44.7435 49.8737 45.0134 49.7615 45.204 49.5612C45.2993 49.4731 45.3787 49.353 45.4263 49.2248C45.474 49.1046 45.5137 48.9765 45.5137 48.8323V46.7415C45.5137 46.5172 45.4501 46.325 45.331 46.1488C45.1484 45.8764 44.8308 45.6922 44.4735 45.6922H41.4085C41.5038 44.2823 41.885 42.9525 42.4964 41.751C42.6075 41.5267 42.7187 41.3184 42.8537 41.1101C43.1951 40.5334 43.6001 39.9886 44.0526 39.492C44.664 38.8031 45.3787 38.2103 46.1489 37.7136C46.1727 37.6896 46.1886 37.6736 46.2124 37.6656H46.2283C46.403 37.5534 46.5856 37.4413 46.7523 37.3452H46.7682C47.6972 36.7684 48.5548 36.0875 49.3409 35.3185C50.3413 34.3172 51.1989 33.1797 51.8897 31.922C51.9135 31.874 51.9373 31.8259 51.977 31.7618C52.4217 30.9207 52.7869 30.0315 53.0569 29.1023C53.0728 29.0623 53.0807 29.0302 53.0966 28.9902C53.184 28.6697 53.2713 28.3493 53.3428 28.0129C53.5492 27.0116 53.6763 25.9862 53.6763 24.9208H71.1766C73.1696 24.9208 74.9721 25.7379 76.2822 27.0596C77.5924 28.3653 78.4023 30.1998 78.4023 32.2024L78.307 32.2505Z" fill="#00D46F"/>
</svg>
